<?xml version="1.0" encoding="UTF-8"?>
<svg id="Layer_2" xmlns="http://www.w3.org/2000/svg" xmlns:xlink="http://www.w3.org/1999/xlink" viewBox="0 0 215.78 254.33">
  <defs>
    <style>
      .cls-1 {
        fill: url(#linear-gradient-2);
      }

      .cls-2 {
        fill: url(#linear-gradient);
      }
    </style>
    <linearGradient id="linear-gradient" x1="1.87" y1="113.66" x2="215.78" y2="113.66" gradientUnits="userSpaceOnUse">
      <stop offset="0" stop-color="#e09d18"/>
      <stop offset="0" stop-color="#f9c924"/>
      <stop offset=".32" stop-color="#e4af18"/>
      <stop offset=".68" stop-color="#fff98c"/>
      <stop offset="1" stop-color="#ffd440"/>
    </linearGradient>
    <linearGradient id="linear-gradient-2" x1="0" y1="150.08" x2="166.92" y2="150.08" xlink:href="#linear-gradient"/>
  </defs>
  <g id="Layer_1-2" data-name="Layer_1">
    <g>
      <path class="cls-2" d="M1.97.15s-.06,0-.09,0c.03,7.86.07,15.72.1,23.58,26.15-.38,52.31,9.41,71.8,26.85s32.1,42.37,34.61,68.4c1.32,13.72-.05,27.64,2.08,41.26,4.97,31.75,30.61,59.24,61.93,66.41,2.44.56,5.01,1,7.44.36,3.04-.81,5.37-3.18,7.47-5.52,12.86-14.32,23.08-31.49,26.63-50.4,1.86-9.91,1.85-20.05,1.84-30.13-.04-46.97-.09-93.93-.13-140.9-38.18-1.16-73.15,15.16-95.94,45.82,6.99,4.38,11.54,10.61,14.78,18.19,14.69-19.55,33.89-31.4,57.56-37.54.17,33.42.34,66.84.52,100.26.07,13.01.12,26.12-2.44,38.88s-7.96,25.28-17.37,34.27c-2.87,2.74-21.02-12.8-23.15-14.93-6.99-6.99-13.27-16.11-15.96-25.73-3.06-10.92-1.01-23.38-1.65-34.72-.72-12.98-2.51-25.91-6.27-38.37-6.65-22.06-18.82-42.77-36.51-57.54C65.29,8.65,33.15.92,1.97.15Z"/>
      <path class="cls-1" d="M92.03,164.87c-1.79-12.11-.76-24.47-2.13-36.63-2.46-21.71-12.87-42.44-28.81-57.38-13.47-12.62-39.54-28.24-58.9-24.47-.03,0-.06.01-.08.02C.16,69.92,1.27,94.8.32,118.58c-.95,23.72-.3,48.07,8.85,70.34,7.67,18.66,21.06,34.85,37.66,46.32,34.83,24.08,83.9,25.52,120.08,3.53-36.64-7.34-69.43-36.93-74.89-73.9ZM62.18,214.14c-16.15-10.88-28.24-27.64-33.46-46.4-2.54-9.13-3.49-18.62-4.02-28.08-.68-12.11-.68-24.25-.4-36.37.14-6.22.36-12.44.59-18.66.11-2.97.28-4.71.98-5.49.87-.96,2.55-.45,5.92,1.05,15.96,7.07,28.36,21.99,31.94,39.13,2.61,12.49.81,25.42,1.33,38.17,1.01,24.98,11.31,49.49,28.45,67.69-11.21-.37-22.02-4.76-31.32-11.03Z"/>
    </g>
  </g>
</svg>