<?xml version="1.0" encoding="UTF-8" standalone="no"?>
<svg
   xmlns:dc="http://purl.org/dc/elements/1.1/"
   xmlns:cc="http://creativecommons.org/ns#"
   xmlns:rdf="http://www.w3.org/1999/02/22-rdf-syntax-ns#"
   xmlns:svg="http://www.w3.org/2000/svg"
   xmlns="http://www.w3.org/2000/svg"
   viewBox="0 0 771.74664 769.59998"
   height="769.59998"
   width="771.74664"
   xml:space="preserve"
   id="svg2"
   version="1.1"><metadata
     id="metadata8"><rdf:RDF><cc:Work
         rdf:about=""><dc:format>image/svg+xml</dc:format><dc:type
           rdf:resource="http://purl.org/dc/dcmitype/StillImage" /></cc:Work></rdf:RDF></metadata><defs
     id="defs6"><linearGradient
       id="linearGradient36"
       spreadMethod="pad"
       gradientTransform="matrix(213.91164,0,0,-213.91164,183.38536,302.10275)"
       gradientUnits="userSpaceOnUse"
       y2="0"
       x2="1"
       y1="0"
       x1="0"><stop
         id="stop26"
         offset="0"
         style="stop-opacity:1;stop-color:#f9c924" /><stop
         id="stop28"
         offset="0"
         style="stop-opacity:1;stop-color:#f9c924" /><stop
         id="stop30"
         offset="0.319846"
         style="stop-opacity:1;stop-color:#e4af18" /><stop
         id="stop32"
         offset="0.680154"
         style="stop-opacity:1;stop-color:#fff98c" /><stop
         id="stop34"
         offset="1"
         style="stop-opacity:1;stop-color:#ffd440" /></linearGradient><linearGradient
       id="linearGradient62"
       spreadMethod="pad"
       gradientTransform="matrix(166.91692,0,0,-166.91692,181.51321,265.68942)"
       gradientUnits="userSpaceOnUse"
       y2="0"
       x2="1"
       y1="0"
       x1="0"><stop
         id="stop52"
         offset="0"
         style="stop-opacity:1;stop-color:#f9c924" /><stop
         id="stop54"
         offset="0"
         style="stop-opacity:1;stop-color:#f9c924" /><stop
         id="stop56"
         offset="0.319846"
         style="stop-opacity:1;stop-color:#e4af18" /><stop
         id="stop58"
         offset="0.680154"
         style="stop-opacity:1;stop-color:#fff98c" /><stop
         id="stop60"
         offset="1"
         style="stop-opacity:1;stop-color:#ffd440" /></linearGradient></defs><g
     transform="matrix(1.3333333,0,0,-1.3333333,0,769.6)"
     id="g10"><path
       id="path12"
       style="fill:#101e33;fill-opacity:1;fill-rule:nonzero;stroke:none"
       d="M 0,0 H 578.81 V 577.201 H 0 Z" /><g
       id="g14"><g
         id="g16"><g
           id="g22"><g
             id="g24"><path
               id="path38"
               style="fill:url(#linearGradient36);stroke:none"
               d="m 301.227,369.887 c 6.986,-4.378 11.543,-10.606 14.779,-18.189 v 0 c 14.693,19.547 33.891,31.4 57.562,37.538 v 0 l 0.516,-100.257 c 0.067,-13.008 0.124,-26.123 -2.438,-38.877 v 0 c -2.561,-12.754 -7.964,-25.282 -17.371,-34.267 v 0 c -2.874,-2.745 -21.021,12.803 -23.153,14.934 v 0 c -6.992,6.986 -13.267,16.112 -15.959,25.728 v 0 c -3.058,10.924 -1.014,23.381 -1.645,34.718 v 0 c -0.723,12.975 -2.508,25.905 -6.265,38.372 v 0 c -6.649,22.058 -18.825,42.768 -36.507,57.536 v 0 c -23.938,19.992 -56.087,27.718 -87.267,28.489 v 0 c -0.032,10e-4 -0.063,0.002 -0.093,0.002 v 0 c 0.033,-7.858 0.067,-15.717 0.101,-23.576 v 0 c 26.149,0.377 52.314,-9.407 71.8,-26.849 v 0 c 19.485,-17.442 32.097,-42.367 34.608,-68.399 v 0 c 1.322,-13.716 -0.048,-27.643 2.083,-41.257 v 0 c 4.969,-31.75 30.61,-59.245 61.934,-66.415 v 0 c 2.446,-0.56 5.015,-1.004 7.439,-0.361 v 0 c 3.037,0.806 5.374,3.179 7.473,5.516 v 0 c 12.856,14.316 23.083,31.489 26.628,50.4 v 0 c 1.856,9.906 1.853,20.054 1.844,30.132 v 0 c -0.043,46.967 -0.086,93.935 -0.129,140.902 v 0 c -1.27,0.039 -2.541,0.058 -3.803,0.058 v 0 c -36.698,0.001 -70.102,-16.24 -92.137,-45.878" /></g></g></g></g><g
       id="g40"><g
         id="g42"><g
           id="g48"><g
             id="g50"><path
               id="path64"
               style="fill:url(#linearGradient62);stroke:none"
               d="m 183.695,369.372 c -0.028,-0.006 -0.056,-0.011 -0.084,-0.017 v 0 c -1.933,-23.512 -0.824,-48.392 -1.775,-72.17 v 0 c -0.949,-23.717 -0.301,-48.071 8.851,-70.335 v 0 c 7.671,-18.663 21.06,-34.851 37.658,-46.325 v 0 c 34.833,-24.078 83.9,-25.519 120.085,-3.527 v 0 c -36.645,7.34 -69.426,36.927 -74.89,73.899 v 0 c -1.79,12.106 -0.759,24.47 -2.135,36.63 v 0 c -2.457,21.713 -12.866,42.438 -28.814,57.376 v 0 c -12.076,11.312 -34.282,25.04 -52.699,25.041 v 0 c -2.123,0 -4.195,-0.183 -6.197,-0.572 m 59.999,-167.749 c -16.152,10.878 -28.241,27.644 -33.461,46.404 v 0 c -2.54,9.128 -3.492,18.621 -4.021,28.081 v 0 c -0.677,12.111 -0.675,24.248 -0.403,36.371 v 0 c 0.141,6.221 0.358,12.441 0.588,18.659 v 0 c 0.11,2.971 0.28,4.714 0.985,5.491 v 0 c 0.867,0.956 2.545,0.445 5.917,-1.048 v 0 c 15.961,-7.067 28.358,-21.994 31.941,-39.127 v 0 c 2.611,-12.486 0.811,-25.425 1.325,-38.17 v 0 c 1.007,-24.984 11.307,-49.488 28.452,-67.688 v 0 c -11.209,0.372 -22.021,4.762 -31.323,11.027" /></g></g></g></g></g></svg>